<svg width="163" height="49" viewBox="0 0 163 49" fill="none" xmlns="http://www.w3.org/2000/svg">
<path d="M162.474 15.4741C162.37 15.2763 162.234 15.2165 162.032 15.2993C161.754 15.4097 161.481 15.5293 161.209 15.6489C160.536 15.9341 159.869 16.2239 159.196 16.5091C159.145 16.5413 159.083 16.5551 159.027 16.5873C158.218 16.9369 157.405 17.2865 156.558 17.6499C156.718 16.8863 156.859 16.1779 157.01 15.4741C157.179 14.6737 157.353 13.8733 157.532 13.0729C157.56 12.9441 157.56 12.8245 157.461 12.7325C157.344 12.6267 157.212 12.6221 157.071 12.6911C156.573 12.9349 156.074 13.1787 155.571 13.4087C155.157 13.6019 154.758 13.8273 154.33 13.9883C154.325 13.9745 154.325 13.9561 154.32 13.9423C154.287 13.9561 154.259 13.9791 154.236 14.0067C154.212 14.0159 154.193 14.0251 154.17 14.0297C154.057 14.0803 153.949 14.1355 153.864 14.2229C153.352 14.4713 152.839 14.7197 152.327 14.9727C151.936 15.1659 151.527 15.3315 151.146 15.5523C151.057 15.5891 150.954 15.5891 150.888 15.6719C150.85 15.6903 150.808 15.7087 150.77 15.7271C150.709 15.7225 150.662 15.7501 150.629 15.8007C150.483 15.8651 150.328 15.9157 150.187 15.9893C150.009 16.0767 149.952 16.2745 150.041 16.4263C150.136 16.5873 150.305 16.6241 150.493 16.5275C150.582 16.4815 150.672 16.4447 150.756 16.4033C151.156 16.2193 151.551 16.0307 151.95 15.8467C152.04 15.8375 152.115 15.8053 152.167 15.7317C152.411 15.6121 152.656 15.4925 152.9 15.3729C154.01 14.8393 155.124 14.3057 156.239 13.7767C156.413 13.6939 156.577 13.5789 156.798 13.5375C156.591 14.5173 156.394 15.4695 156.192 16.4263C156.149 16.5229 156.112 16.6149 156.116 16.7207C156.022 17.1715 155.928 17.6223 155.839 18.0777C155.778 18.3813 155.999 18.5653 156.295 18.4457C156.62 18.3169 156.93 18.1651 157.25 18.0271C157.602 17.8753 157.955 17.7327 158.308 17.5855C158.383 17.5487 158.453 17.5073 158.529 17.4751C158.952 17.2957 159.37 17.1163 159.793 16.9323C160.541 16.6103 161.289 16.2975 162.032 15.9663C162.196 15.8927 162.422 15.8697 162.483 15.6443C162.502 15.5845 162.506 15.5293 162.474 15.4741Z" fill="#382828"/>
<path d="M150.145 13.1465C150.248 13.1557 150.324 13.1235 150.394 13.0499C150.672 12.7601 150.958 12.4749 151.245 12.1897C152.581 10.8465 153.921 9.50327 155.261 8.16007C155.477 7.93927 155.698 7.72307 155.914 7.50227C156.055 7.35507 156.06 7.15727 155.928 7.03767C155.801 6.91807 155.585 6.92267 155.453 7.06987C155.406 7.12047 155.355 7.16647 155.308 7.21247C154.09 8.44067 152.867 9.66887 151.65 10.8971C151.076 11.4767 150.502 12.0609 149.929 12.6405C149.83 12.7417 149.811 12.8567 149.858 12.9625C149.905 13.0775 149.999 13.1741 150.145 13.1465Z" fill="#382828"/>
<path d="M150.168 9.42048C150.333 9.49868 150.535 9.39748 150.629 9.20888C150.813 8.83168 151.001 8.45448 151.189 8.08188C151.635 7.19408 152.092 6.31088 152.529 5.42308C152.599 5.28048 152.708 5.14248 152.712 4.96308C152.693 4.82968 152.637 4.71928 152.482 4.68708C152.336 4.65488 152.214 4.68248 152.143 4.82048C151.936 5.21148 151.73 5.60248 151.532 5.99808C151.038 6.97788 150.554 7.96228 150.065 8.94208C149.952 9.15828 149.99 9.33308 150.168 9.42048Z" fill="#382828"/>
<path d="M128.713 8.22457C128.751 8.22457 128.784 8.22457 128.821 8.22457C132.456 8.22457 136.09 8.22457 139.725 8.22457C139.772 8.22457 139.824 8.22917 139.871 8.21997C140.111 8.18777 140.205 7.99457 140.097 7.76917C140.04 7.59437 139.89 7.60817 139.753 7.60817C136.095 7.60817 132.442 7.60817 128.784 7.60817C128.68 7.60817 128.577 7.61277 128.501 7.69557C128.393 7.78297 128.337 7.88877 128.403 8.02217C128.459 8.15097 128.563 8.22917 128.713 8.22457Z" fill="#382828"/>
<path d="M147.575 16.1641C147.575 12.7877 147.575 9.40671 147.575 6.03031C147.575 5.91531 147.571 5.80951 147.458 5.74051C147.397 5.63931 147.317 5.57031 147.204 5.52891C147.199 5.47371 147.152 5.45071 147.115 5.41851C145.831 4.32371 144.547 3.22891 143.268 2.13411C142.483 1.46251 141.707 0.786314 140.922 0.114714C140.734 -0.0462856 140.588 -0.0370856 140.414 0.137714C140.292 0.252714 140.292 0.363114 140.414 0.478114C140.574 0.657515 140.767 0.800114 140.95 0.956514C142.479 2.26291 144.007 3.57851 145.535 4.88951C146 5.28971 146.466 5.68531 146.936 6.08091C146.936 6.10851 146.941 6.13611 146.941 6.16371C146.941 9.36531 146.941 12.5669 146.945 15.7685C146.945 15.9709 146.833 15.9479 146.706 15.9479C144.599 15.9479 142.493 15.9433 140.386 15.9525C140.189 15.9525 140.156 15.8881 140.156 15.7133C140.165 14.6967 140.16 13.6801 140.16 12.6635C140.16 12.5853 140.193 12.4979 140.118 12.4289C140.066 12.2127 139.892 12.2173 139.718 12.2173C136.079 12.2173 132.44 12.2173 128.8 12.2173C128.758 12.2173 128.716 12.2127 128.673 12.2219C128.518 12.2541 128.396 12.3369 128.382 12.4979C128.373 12.6543 128.448 12.7739 128.622 12.8061C128.706 12.8613 128.8 12.8337 128.89 12.8337C132.355 12.8337 135.825 12.8383 139.291 12.8291C139.474 12.8291 139.53 12.8705 139.53 13.0545C139.521 14.0711 139.526 15.0831 139.526 16.0997C139.526 16.1871 139.497 16.2791 139.568 16.3573C139.568 16.4171 139.573 16.4723 139.653 16.4769C139.737 16.5781 139.855 16.5597 139.968 16.5597C141.106 16.5597 142.239 16.5597 143.377 16.5597C144.632 16.5597 145.887 16.5597 147.148 16.5597C147.289 16.5597 147.434 16.5597 147.505 16.4033C147.594 16.3481 147.575 16.2515 147.575 16.1641ZM146.992 13.1281C146.997 13.1281 146.997 13.1327 147.002 13.1327C146.997 13.1281 146.992 13.1281 146.992 13.1281ZM147.03 13.1281H147.025C147.03 13.1281 147.03 13.1281 147.03 13.1281ZM147.228 5.55651C147.218 5.54731 147.209 5.53811 147.204 5.52891C147.218 5.53351 147.223 5.54731 147.228 5.55651ZM147.101 7.97611C147.091 7.98531 147.086 7.98991 147.077 8.00371C147.077 7.98991 147.077 7.97611 147.077 7.96691C147.082 7.97151 147.086 7.97611 147.091 7.97611C147.096 7.97611 147.096 7.97611 147.101 7.97611Z" fill="#382828"/>
<path d="M152.721 39.8496H128.29C128.088 39.8496 127.928 39.6886 127.928 39.4954V18.8276C127.928 18.6298 128.092 18.4734 128.29 18.4734H152.717C152.919 18.4734 153.079 18.6344 153.079 18.8276V39.4954C153.083 39.6932 152.924 39.8496 152.721 39.8496ZM128.657 39.1366H152.355V19.1818H128.657V39.1366Z" fill="#382828"/>
<path d="M134.186 43.7704V42.3352H134.708C134.948 42.3352 135.136 42.4042 135.286 42.5376C135.437 42.671 135.512 42.8412 135.512 43.0528C135.512 43.2644 135.437 43.4392 135.286 43.5726C135.136 43.706 134.943 43.7704 134.708 43.7704H134.186ZM134.416 43.5634H134.684C134.868 43.5634 135.014 43.5174 135.117 43.4254C135.22 43.3334 135.272 43.2092 135.272 43.0528C135.272 42.8964 135.22 42.7722 135.117 42.6802C135.014 42.5882 134.868 42.5422 134.684 42.5422H134.416V43.5634Z" fill="#382828"/>
<path d="M136.466 43.7694V42.3342H136.697V43.7694H136.466Z" fill="#382828"/>
<path d="M137.877 43.5847C137.731 43.4421 137.656 43.2627 137.656 43.0511C137.656 42.8349 137.731 42.6555 137.877 42.5175C138.023 42.3749 138.211 42.3059 138.432 42.3059C138.611 42.3059 138.761 42.3473 138.888 42.4301V42.6555C138.752 42.5635 138.606 42.5221 138.446 42.5221C138.286 42.5221 138.155 42.5727 138.051 42.6739C137.948 42.7751 137.896 42.9039 137.896 43.0603C137.896 43.2167 137.948 43.3455 138.046 43.4467C138.15 43.5433 138.272 43.5939 138.423 43.5939C138.573 43.5939 138.691 43.5525 138.78 43.4743V42.9499H139.01V43.5663C138.888 43.7043 138.667 43.8055 138.423 43.8055C138.211 43.7917 138.028 43.7227 137.877 43.5847Z" fill="#382828"/>
<path d="M139.984 43.7694V42.3342H140.214V43.7694H139.984Z" fill="#382828"/>
<path d="M141.117 42.3295H142.325V42.5365H141.836V43.7647H141.606V42.5365H141.117V42.3295Z" fill="#382828"/>
<path d="M142.861 43.7692L143.505 42.3248H143.726L144.371 43.7692H144.121L143.961 43.4104H143.261L143.101 43.7692H142.861ZM143.346 43.2126H143.886L143.618 42.61L143.346 43.2126Z" fill="#382828"/>
<path d="M145.236 43.7694V42.3342H145.471V43.5624H146.256V43.7694H145.236Z" fill="#382828"/>
<path d="M131.609 27.5169C131.496 27.5169 131.402 27.4801 131.327 27.4019C131.252 27.3283 131.214 27.2317 131.214 27.1213V22.0245C131.214 21.9141 131.252 21.8221 131.332 21.7439C131.407 21.6703 131.501 21.6289 131.609 21.6289C131.722 21.6289 131.816 21.6657 131.896 21.7439C131.971 21.8175 132.014 21.9141 132.014 22.0245V26.7349H134.802C134.915 26.7349 135.009 26.7717 135.089 26.8499C135.164 26.9235 135.206 27.0201 135.206 27.1305C135.206 27.2409 135.169 27.3329 135.089 27.4111C135.014 27.4847 134.915 27.5261 134.802 27.5261H131.609V27.5169Z" fill="#382828"/>
<path d="M137.981 27.5169C137.868 27.5169 137.774 27.4801 137.694 27.4019C137.618 27.3283 137.576 27.2317 137.576 27.1213V22.0245C137.576 21.9095 137.614 21.8129 137.694 21.7439C137.769 21.6703 137.868 21.6335 137.981 21.6335H142.043C142.161 21.6335 142.255 21.6657 142.33 21.7347C142.4 21.8037 142.438 21.8911 142.438 22.0015C142.438 22.1073 142.4 22.1947 142.33 22.2591C142.259 22.3235 142.161 22.3557 142.043 22.3557H138.38V24.1865H141.168C141.286 24.1865 141.38 24.2187 141.455 24.2877C141.526 24.3567 141.563 24.4441 141.563 24.5453C141.563 24.6465 141.526 24.7385 141.455 24.8029C141.385 24.8719 141.286 24.9041 141.168 24.9041H138.38V26.7855H142.043C142.161 26.7855 142.255 26.8177 142.33 26.8821C142.4 26.9465 142.438 27.0339 142.438 27.1397C142.438 27.2501 142.4 27.3375 142.33 27.4065C142.259 27.4755 142.161 27.5077 142.043 27.5077H137.981V27.5169Z" fill="#382828"/>
<path d="M147.53 27.7193C147.366 27.7193 147.243 27.6365 147.168 27.4709L144.911 22.4247C144.841 22.2545 144.831 22.1119 144.888 22.0015C144.944 21.8911 145.052 21.8359 145.212 21.8359C145.391 21.8359 145.513 21.9141 145.584 22.0705L147.563 26.7165H147.479L149.5 22.0705C149.543 21.9785 149.59 21.9187 149.641 21.8865C149.693 21.8543 149.768 21.8359 149.862 21.8359C150.018 21.8359 150.121 21.8911 150.182 21.9969C150.243 22.1027 150.239 22.2223 150.177 22.3557L147.897 27.4709C147.859 27.5491 147.812 27.6135 147.756 27.6549C147.69 27.6963 147.615 27.7193 147.53 27.7193Z" fill="#382828"/>
<path d="M147.752 30.6127C147.813 30.6541 147.86 30.7185 147.893 30.7967L150.173 35.9119C150.234 36.0407 150.234 36.1603 150.178 36.2707C150.117 36.3765 150.013 36.4317 149.858 36.4317C149.764 36.4317 149.693 36.4133 149.637 36.3811C149.585 36.3489 149.534 36.2891 149.496 36.1971L147.474 31.5511H147.559L145.579 36.1971C145.513 36.3535 145.391 36.4317 145.208 36.4317C145.048 36.4317 144.94 36.3765 144.883 36.2661C144.827 36.1557 144.836 36.0131 144.907 35.8429L147.164 30.7967C147.239 30.6311 147.361 30.5483 147.526 30.5483C147.615 30.5483 147.69 30.5667 147.752 30.6127Z" fill="#382828"/>
<path d="M133.123 36.6295C132.794 36.6295 132.479 36.5789 132.183 36.4777C131.887 36.3765 131.623 36.2385 131.402 36.0545C131.181 35.8751 131.022 35.6635 130.918 35.4289C130.866 35.3231 130.866 35.2265 130.923 35.1345C130.975 35.0425 131.069 34.9873 131.196 34.9597C131.29 34.9413 131.379 34.9551 131.468 35.0011C131.558 35.0471 131.628 35.1207 131.67 35.2173C131.732 35.3415 131.835 35.4565 131.976 35.5623C132.117 35.6681 132.286 35.7555 132.489 35.8199C132.691 35.8843 132.898 35.9165 133.119 35.9165C133.363 35.9165 133.594 35.8797 133.8 35.8015C134.007 35.7279 134.177 35.6175 134.304 35.4749C134.43 35.3323 134.496 35.1529 134.496 34.9459C134.496 34.6791 134.388 34.4399 134.177 34.2283C133.965 34.0167 133.612 33.8879 133.123 33.8373C132.484 33.7775 131.985 33.5935 131.619 33.2853C131.252 32.9771 131.073 32.5999 131.073 32.1491C131.073 31.8179 131.167 31.5373 131.36 31.3073C131.548 31.0773 131.807 30.9025 132.136 30.7783C132.46 30.6587 132.827 30.5989 133.227 30.5989C133.542 30.5989 133.815 30.6403 134.05 30.7277C134.285 30.8151 134.487 30.9301 134.661 31.0819C134.835 31.2337 134.985 31.4131 135.117 31.6155C135.188 31.7259 135.22 31.8317 135.206 31.9283C135.192 32.0249 135.145 32.1031 135.056 32.1583C134.957 32.2181 134.854 32.2319 134.741 32.1951C134.628 32.1583 134.543 32.0939 134.487 31.9973C134.402 31.8501 134.304 31.7305 134.186 31.6293C134.068 31.5281 133.927 31.4499 133.768 31.3901C133.608 31.3303 133.42 31.3027 133.203 31.3027C132.822 31.2981 132.503 31.3671 132.249 31.5097C131.99 31.6523 131.863 31.8731 131.863 32.1675C131.863 32.3193 131.901 32.4619 131.981 32.5999C132.061 32.7379 132.206 32.8575 132.418 32.9587C132.63 33.0599 132.94 33.1289 133.34 33.1703C133.951 33.2301 134.426 33.4141 134.769 33.7177C135.112 34.0213 135.282 34.4215 135.282 34.9183C135.282 35.2035 135.22 35.4519 135.098 35.6635C134.976 35.8751 134.816 36.0499 134.614 36.1925C134.412 36.3351 134.181 36.4409 133.918 36.5145C133.673 36.5973 133.405 36.6295 133.123 36.6295Z" fill="#382828"/>
<path d="M137.887 36.556C137.774 36.556 137.68 36.5192 137.6 36.441C137.525 36.3674 137.482 36.2708 137.482 36.1604V31.0636C137.482 30.9486 137.52 30.852 137.6 30.783C137.675 30.7094 137.774 30.6726 137.887 30.6726C138.004 30.6726 138.103 30.7094 138.174 30.783C138.249 30.8566 138.286 30.9486 138.286 31.0636V33.2256H141.865V31.0636C141.865 30.9486 141.902 30.852 141.982 30.783C142.057 30.7094 142.156 30.6726 142.269 30.6726C142.387 30.6726 142.481 30.7094 142.556 30.783C142.626 30.8566 142.664 30.9486 142.664 31.0636V36.165C142.664 36.2754 142.626 36.3674 142.556 36.4456C142.485 36.5192 142.387 36.5606 142.269 36.5606C142.156 36.5606 142.062 36.5238 141.982 36.4456C141.907 36.372 141.865 36.2754 141.865 36.165V33.9202H138.286V36.165C138.286 36.2754 138.249 36.3674 138.174 36.4456C138.103 36.5192 138.009 36.556 137.887 36.556Z" fill="#382828"/>
<path d="M26.0486 15.6519H22.8566V8.64835H25.9751C26.5771 8.64835 27.0531 8.81286 27.4031 9.14186C27.7601 9.47086 27.9386 9.90136 27.9386 10.4334C27.9386 10.8534 27.8196 11.2104 27.5816 11.5044C27.3436 11.7914 27.0531 11.9699 26.7101 12.0399C27.0811 12.0959 27.3996 12.2919 27.6656 12.6279C27.9386 12.9639 28.0751 13.3419 28.0751 13.7619C28.0751 14.3289 27.8931 14.7874 27.5291 15.1374C27.1721 15.4804 26.6786 15.6519 26.0486 15.6519ZM25.8281 11.6829C26.2131 11.6829 26.5106 11.5779 26.7206 11.3679C26.9306 11.1579 27.0356 10.8884 27.0356 10.5594C27.0356 10.2304 26.9271 9.96086 26.7101 9.75086C26.5001 9.53385 26.2061 9.42535 25.8281 9.42535H23.7281V11.6829H25.8281ZM25.8701 14.8749C26.2761 14.8749 26.5946 14.7664 26.8256 14.5494C27.0566 14.3324 27.1721 14.0384 27.1721 13.6674C27.1721 13.3244 27.0566 13.0374 26.8256 12.8064C26.6016 12.5754 26.2831 12.4599 25.8701 12.4599H23.7281V14.8749H25.8701ZM33.6286 15.6519H32.7151L31.1926 13.5729L29.6701 15.6519H28.7671L30.7096 13.0479L28.8721 10.5804H29.7856L31.1926 12.5124L32.5996 10.5804H33.5131L31.6756 13.0479L33.6286 15.6519ZM38.1774 15.0114C37.7224 15.5224 37.1169 15.7779 36.3609 15.7779C35.6049 15.7779 34.9959 15.5224 34.5339 15.0114C34.0789 14.5004 33.8514 13.8669 33.8514 13.1109C33.8514 12.3549 34.0789 11.7249 34.5339 11.2209C34.9959 10.7099 35.6049 10.4544 36.3609 10.4544C37.1169 10.4544 37.7224 10.7099 38.1774 11.2209C38.6394 11.7249 38.8704 12.3549 38.8704 13.1109C38.8704 13.8669 38.6394 14.5004 38.1774 15.0114ZM35.1219 14.5074C35.4299 14.8854 35.8429 15.0744 36.3609 15.0744C36.8789 15.0744 37.2884 14.8854 37.5894 14.5074C37.8904 14.1224 38.0409 13.6569 38.0409 13.1109C38.0409 12.5649 37.8904 12.1029 37.5894 11.7249C37.2884 11.3469 36.8789 11.1579 36.3609 11.1579C35.8429 11.1579 35.4299 11.3504 35.1219 11.7354C34.8209 12.1134 34.6704 12.5719 34.6704 13.1109C34.6704 13.6569 34.8209 14.1224 35.1219 14.5074ZM39.5557 16.9434V15.0009C39.8147 14.9519 40.0177 14.7979 40.1647 14.5389C40.3117 14.2729 40.4307 13.7864 40.5217 13.0794L40.8472 10.5804H44.3752V14.9589H44.9632V16.9434H44.1757V15.6519H40.3432V16.9434H39.5557ZM41.5402 11.2734L41.3092 13.1739C41.1902 14.0629 40.9452 14.6579 40.5742 14.9589H43.5877V11.2734H41.5402ZM46.7959 15.6519H46.0399V10.5804H46.8274V14.4549L49.4839 10.5804H50.2609V15.6519H49.4734V11.7039L46.7959 15.6519ZM53.5449 15.6519H52.7574V11.2734H51.2874V10.5804H55.0254V11.2734H53.5449V15.6519ZM61.6105 15.6519H58.765V10.5804H61.558C61.999 10.5804 62.3455 10.6994 62.5975 10.9374C62.8565 11.1754 62.986 11.4904 62.986 11.8824C62.986 12.1694 62.9055 12.4179 62.7445 12.6279C62.5905 12.8309 62.398 12.9674 62.167 13.0374C62.426 13.1004 62.643 13.2509 62.818 13.4889C63 13.7269 63.091 13.9894 63.091 14.2764C63.091 14.6894 62.958 15.0219 62.692 15.2739C62.433 15.5259 62.0725 15.6519 61.6105 15.6519ZM61.453 14.9589C61.705 14.9589 61.9045 14.8889 62.0515 14.7489C62.1985 14.6089 62.272 14.4199 62.272 14.1819C62.272 13.9649 62.1985 13.7794 62.0515 13.6254C61.9045 13.4714 61.705 13.3944 61.453 13.3944H59.5525V14.9589H61.453ZM61.4215 12.7014C61.6595 12.7014 61.845 12.6384 61.978 12.5124C62.111 12.3794 62.1775 12.2079 62.1775 11.9979C62.1775 11.7739 62.111 11.5989 61.978 11.4729C61.845 11.3399 61.6595 11.2734 61.4215 11.2734H59.5525V12.7014H61.4215ZM69.5225 15.7779C68.7735 15.7779 68.1645 15.5259 67.6955 15.0219C67.2265 14.5109 66.992 13.8739 66.992 13.1109C66.992 12.3479 67.2265 11.7144 67.6955 11.2104C68.1645 10.7064 68.7735 10.4544 69.5225 10.4544C70.3065 10.4544 70.926 10.7484 71.381 11.3364L70.856 11.8194C70.534 11.3784 70.1035 11.1579 69.5645 11.1579C69.0325 11.1579 68.6055 11.3399 68.2835 11.7039C67.9685 12.0679 67.811 12.5369 67.811 13.1109C67.811 13.6849 67.9685 14.1574 68.2835 14.5284C68.6055 14.8924 69.0325 15.0744 69.5645 15.0744C70.0965 15.0744 70.527 14.8539 70.856 14.4129L71.381 14.8959C70.926 15.4839 70.3065 15.7779 69.5225 15.7779ZM74.1963 15.6519H73.4088V11.2734H71.9388V10.5804H75.6768V11.2734H74.1963V15.6519ZM79.2084 15.7779C78.4944 15.7779 77.9239 15.4804 77.4969 14.8854V17.5839H76.7094V10.5804H77.4969V11.3364C77.6859 11.0704 77.9309 10.8569 78.2319 10.6959C78.5329 10.5349 78.8584 10.4544 79.2084 10.4544C79.8804 10.4544 80.4229 10.6959 80.8359 11.1789C81.2559 11.6549 81.4659 12.2989 81.4659 13.1109C81.4659 13.9229 81.2559 14.5704 80.8359 15.0534C80.4229 15.5364 79.8804 15.7779 79.2084 15.7779ZM79.0089 15.0744C79.5059 15.0744 79.9014 14.8924 80.1954 14.5284C80.4894 14.1574 80.6364 13.6849 80.6364 13.1109C80.6364 12.5369 80.4894 12.0679 80.1954 11.7039C79.9014 11.3399 79.5059 11.1579 79.0089 11.1579C78.7079 11.1579 78.4139 11.2384 78.1269 11.3994C77.8469 11.5534 77.6369 11.7424 77.4969 11.9664V14.2554C77.6369 14.4864 77.8469 14.6824 78.1269 14.8434C78.4139 14.9974 78.7079 15.0744 79.0089 15.0744ZM82.4347 17.6364L82.5607 16.9224C82.6867 16.9784 82.8302 17.0064 82.9912 17.0064C83.1732 17.0064 83.3237 16.9679 83.4427 16.8909C83.5617 16.8139 83.6632 16.6739 83.7472 16.4709L84.0832 15.7044L81.9622 10.5804H82.8127L84.5032 14.7384L86.1832 10.5804H87.0442L84.5032 16.6809C84.2232 17.3529 83.7262 17.6959 83.0122 17.7099C82.8022 17.7099 82.6097 17.6854 82.4347 17.6364ZM92.3281 15.6519H91.3201L89.4931 13.3734L88.6531 14.2029V15.6519H87.8656V10.5804H88.6531V13.2789L91.3201 10.5804H92.3176L90.0706 12.8799L92.3281 15.6519ZM94.9707 15.6519H94.1832V11.2734H92.7132V10.5804H96.4512V11.2734H94.9707V15.6519ZM97.2003 17.6364L97.3263 16.9224C97.4523 16.9784 97.5958 17.0064 97.7568 17.0064C97.9388 17.0064 98.0893 16.9679 98.2083 16.8909C98.3273 16.8139 98.4288 16.6739 98.5128 16.4709L98.8488 15.7044L96.7278 10.5804H97.5783L99.2688 14.7384L100.949 10.5804H101.81L99.2688 16.6809C98.9888 17.3529 98.4918 17.6959 97.7778 17.7099C97.5678 17.7099 97.3753 17.6854 97.2003 17.6364ZM105.13 15.7779C104.416 15.7779 103.846 15.4804 103.419 14.8854V17.5839H102.631V10.5804H103.419V11.3364C103.608 11.0704 103.853 10.8569 104.154 10.6959C104.455 10.5349 104.78 10.4544 105.13 10.4544C105.802 10.4544 106.345 10.6959 106.758 11.1789C107.178 11.6549 107.388 12.2989 107.388 13.1109C107.388 13.9229 107.178 14.5704 106.758 15.0534C106.345 15.5364 105.802 15.7779 105.13 15.7779ZM104.931 15.0744C105.428 15.0744 105.823 14.8924 106.117 14.5284C106.411 14.1574 106.558 13.6849 106.558 13.1109C106.558 12.5369 106.411 12.0679 106.117 11.7039C105.823 11.3399 105.428 11.1579 104.931 11.1579C104.63 11.1579 104.336 11.2384 104.049 11.3994C103.769 11.5534 103.559 11.7424 103.419 11.9664V14.2554C103.559 14.4864 103.769 14.6824 104.049 14.8434C104.336 14.9974 104.63 15.0744 104.931 15.0744ZM108.357 17.6364L108.483 16.9224C108.609 16.9784 108.752 17.0064 108.913 17.0064C109.095 17.0064 109.246 16.9679 109.365 16.8909C109.484 16.8139 109.585 16.6739 109.669 16.4709L110.005 15.7044L107.884 10.5804H108.735L110.425 14.7384L112.105 10.5804H112.966L110.425 16.6809C110.145 17.3529 109.648 17.6959 108.934 17.7099C108.724 17.7099 108.532 17.6854 108.357 17.6364ZM73.8854 27.6519H72.9719L71.4494 25.5729L69.9269 27.6519H69.0239L70.9664 25.0479L69.1289 22.5804H70.0424L71.4494 24.5124L72.8564 22.5804H73.7699L71.9324 25.0479L73.8854 27.6519ZM78.4342 27.0114C77.9792 27.5224 77.3737 27.7779 76.6177 27.7779C75.8617 27.7779 75.2527 27.5224 74.7907 27.0114C74.3357 26.5004 74.1082 25.8669 74.1082 25.1109C74.1082 24.3549 74.3357 23.7249 74.7907 23.2209C75.2527 22.7099 75.8617 22.4544 76.6177 22.4544C77.3737 22.4544 77.9792 22.7099 78.4342 23.2209C78.8962 23.7249 79.1272 24.3549 79.1272 25.1109C79.1272 25.8669 78.8962 26.5004 78.4342 27.0114ZM75.3787 26.5074C75.6867 26.8854 76.0997 27.0744 76.6177 27.0744C77.1357 27.0744 77.5452 26.8854 77.8462 26.5074C78.1472 26.1224 78.2977 25.6569 78.2977 25.1109C78.2977 24.5649 78.1472 24.1029 77.8462 23.7249C77.5452 23.3469 77.1357 23.1579 76.6177 23.1579C76.0997 23.1579 75.6867 23.3504 75.3787 23.7354C75.0777 24.1134 74.9272 24.5719 74.9272 25.1109C74.9272 25.6569 75.0777 26.1224 75.3787 26.5074ZM79.8125 27.7779V27.1269C80.0505 27.1269 80.2465 26.9694 80.4005 26.6544C80.5545 26.3394 80.6805 25.8144 80.7785 25.0794L81.104 22.5804H84.632V27.6519H83.8445V23.2734H81.797L81.566 25.1739C81.454 26.1049 81.258 26.7734 80.978 27.1794C80.698 27.5784 80.3095 27.7779 79.8125 27.7779ZM85.606 28.9434V27.0009C85.865 26.9519 86.068 26.7979 86.215 26.5389C86.362 26.2729 86.481 25.7864 86.572 25.0794L86.8975 22.5804H90.4255V26.9589H91.0135V28.9434H90.226V27.6519H86.3935V28.9434H85.606ZM87.5905 23.2734L87.3595 25.1739C87.2405 26.0629 86.9955 26.6579 86.6245 26.9589H89.638V23.2734H87.5905ZM92.8462 27.6519H92.0902V22.5804H92.8777V26.4549L95.5342 22.5804H96.3112V27.6519H95.5237V23.7039L92.8462 27.6519ZM98.6712 27.6519H97.8837V22.5804H98.6712V24.6909H101.317V22.5804H102.105V27.6519H101.317V25.3839H98.6712V27.6519ZM107.226 22.5804V23.2734H104.465V27.6519H103.677V22.5804H107.226ZM112.209 27.6519H111.421V27.0744C110.994 27.5434 110.434 27.7779 109.741 27.7779C109.272 27.7779 108.859 27.6274 108.502 27.3264C108.145 27.0254 107.967 26.6159 107.967 26.0979C107.967 25.5659 108.142 25.1564 108.492 24.8694C108.849 24.5754 109.265 24.4284 109.741 24.4284C110.462 24.4284 111.022 24.6594 111.421 25.1214V24.2079C111.421 23.8719 111.302 23.6094 111.064 23.4204C110.826 23.2314 110.518 23.1369 110.14 23.1369C109.545 23.1369 109.027 23.3714 108.586 23.8404L108.219 23.2944C108.758 22.7344 109.433 22.4544 110.245 22.4544C110.826 22.4544 111.299 22.5944 111.663 22.8744C112.027 23.1544 112.209 23.5849 112.209 24.1659V27.6519ZM110.025 27.2109C110.655 27.2109 111.12 27.0009 111.421 26.5809V25.6254C111.12 25.2054 110.655 24.9954 110.025 24.9954C109.661 24.9954 109.36 25.1004 109.122 25.3104C108.891 25.5134 108.775 25.7794 108.775 26.1084C108.775 26.4304 108.891 26.6964 109.122 26.9064C109.36 27.1094 109.661 27.2109 110.025 27.2109ZM53.756 39.6519H49.6295V32.6484H50.501V38.8749H53.756V39.6519ZM57.014 39.7779C56.258 39.7779 55.6385 39.5329 55.1555 39.0429C54.6725 38.5459 54.431 37.9019 54.431 37.1109C54.431 36.3689 54.669 35.7424 55.145 35.2314C55.621 34.7134 56.216 34.4544 56.93 34.4544C57.679 34.4544 58.2705 34.7134 58.7045 35.2314C59.1455 35.7424 59.366 36.3899 59.366 37.1739V37.3734H55.2605C55.2955 37.8704 55.4775 38.2869 55.8065 38.6229C56.1355 38.9589 56.5625 39.1269 57.0875 39.1269C57.7175 39.1269 58.239 38.9134 58.652 38.4864L59.03 39.0009C58.512 39.5189 57.84 39.7779 57.014 39.7779ZM58.589 36.7959C58.582 36.3619 58.435 35.9734 58.148 35.6304C57.861 35.2804 57.4515 35.1054 56.9195 35.1054C56.4155 35.1054 56.0165 35.2769 55.7225 35.6199C55.4355 35.9629 55.2815 36.3549 55.2605 36.7959H58.589ZM62.857 39.6519H61.996L59.8855 34.5804H60.736L62.4265 38.7384L64.1065 34.5804H64.9675L62.857 39.6519ZM67.3955 39.7779C66.5345 39.7779 65.852 39.5119 65.348 38.9799L65.7575 38.4129C65.9325 38.6159 66.1705 38.7874 66.4715 38.9274C66.7795 39.0674 67.098 39.1374 67.427 39.1374C67.805 39.1374 68.099 39.0569 68.309 38.8959C68.519 38.7349 68.624 38.5249 68.624 38.2659C68.624 38.0419 68.5155 37.8669 68.2985 37.7409C68.0815 37.6079 67.819 37.5099 67.511 37.4469C67.21 37.3769 66.9055 37.2999 66.5975 37.2159C66.2895 37.1249 66.027 36.9744 65.81 36.7644C65.593 36.5474 65.4845 36.2639 65.4845 35.9139C65.4845 35.5009 65.6525 35.1544 65.9885 34.8744C66.3315 34.5944 66.7935 34.4544 67.3745 34.4544C68.1375 34.4544 68.764 34.6994 69.254 35.1894L68.8865 35.7354C68.5295 35.3084 68.0255 35.0949 67.3745 35.0949C67.0315 35.0949 66.7585 35.1719 66.5555 35.3259C66.3525 35.4729 66.251 35.6619 66.251 35.8929C66.251 36.0959 66.3595 36.2569 66.5765 36.3759C66.7935 36.4879 67.0525 36.5789 67.3535 36.6489C67.6615 36.7119 67.9695 36.7889 68.2775 36.8799C68.5855 36.9709 68.848 37.1319 69.065 37.3629C69.282 37.5869 69.3905 37.8809 69.3905 38.2449C69.3905 38.6929 69.2155 39.0604 68.8655 39.3474C68.5155 39.6344 68.0255 39.7779 67.3955 39.7779ZM74.8908 39.6519H74.1033V36.3129C74.1033 35.8929 74.0053 35.5954 73.8093 35.4204C73.6133 35.2454 73.3298 35.1579 72.9588 35.1579C72.6718 35.1579 72.3883 35.2349 72.1083 35.3889C71.8353 35.5429 71.6183 35.7284 71.4573 35.9454V39.6519H70.6698V32.6484H71.4573V35.3154C71.6533 35.0844 71.9158 34.8849 72.2448 34.7169C72.5738 34.5419 72.9168 34.4544 73.2738 34.4544C74.3518 34.4544 74.8908 34.9934 74.8908 36.0714V39.6519ZM80.4218 39.6519H79.6343V39.0744C79.2073 39.5434 78.6473 39.7779 77.9543 39.7779C77.4853 39.7779 77.0723 39.6274 76.7153 39.3264C76.3583 39.0254 76.1798 38.6159 76.1798 38.0979C76.1798 37.5659 76.3548 37.1564 76.7048 36.8694C77.0618 36.5754 77.4783 36.4284 77.9543 36.4284C78.6753 36.4284 79.2353 36.6594 79.6343 37.1214V36.2079C79.6343 35.8719 79.5153 35.6094 79.2773 35.4204C79.0393 35.2314 78.7313 35.1369 78.3533 35.1369C77.7583 35.1369 77.2403 35.3714 76.7993 35.8404L76.4318 35.2944C76.9708 34.7344 77.6463 34.4544 78.4583 34.4544C79.0393 34.4544 79.5118 34.5944 79.8758 34.8744C80.2398 35.1544 80.4218 35.5849 80.4218 36.1659V39.6519ZM78.2378 39.2109C78.8678 39.2109 79.3333 39.0009 79.6343 38.5809V37.6254C79.3333 37.2054 78.8678 36.9954 78.2378 36.9954C77.8738 36.9954 77.5728 37.1004 77.3348 37.3104C77.1038 37.5134 76.9883 37.7794 76.9883 38.1084C76.9883 38.4304 77.1038 38.6964 77.3348 38.9064C77.5728 39.1094 77.8738 39.2109 78.2378 39.2109ZM87.1329 39.6519H84.7389V32.6484H87.1329C88.2039 32.6484 89.0684 32.9809 89.7264 33.6459C90.3914 34.3109 90.7239 35.1474 90.7239 36.1554C90.7239 37.1704 90.3914 38.0069 89.7264 38.6649C89.0684 39.3229 88.2039 39.6519 87.1329 39.6519ZM87.1329 38.8749C87.9589 38.8749 88.6134 38.6159 89.0964 38.0979C89.5794 37.5799 89.8209 36.9324 89.8209 36.1554C89.8209 35.3714 89.5829 34.7204 89.1069 34.2024C88.6309 33.6844 87.9729 33.4254 87.1329 33.4254H85.6104V38.8749H87.1329ZM92.448 33.8559C92.308 33.8559 92.1855 33.8069 92.0805 33.7089C91.9755 33.6039 91.923 33.4779 91.923 33.3309C91.923 33.1839 91.9755 33.0579 92.0805 32.9529C92.1855 32.8479 92.308 32.7954 92.448 32.7954C92.595 32.7954 92.721 32.8479 92.826 32.9529C92.931 33.0579 92.9835 33.1839 92.9835 33.3309C92.9835 33.4779 92.931 33.6039 92.826 33.7089C92.721 33.8069 92.595 33.8559 92.448 33.8559ZM92.847 39.6519H92.0595V34.5804H92.847V39.6519ZM96.4549 41.7099C96.0069 41.7099 95.6254 41.6539 95.3104 41.5419C94.9954 41.4369 94.6944 41.2409 94.4074 40.9539L94.8064 40.3659C95.1914 40.8279 95.7409 41.0589 96.4549 41.0589C96.9239 41.0589 97.3124 40.9329 97.6204 40.6809C97.9284 40.4359 98.0824 40.0544 98.0824 39.5364V38.8119C97.8934 39.0779 97.6484 39.2949 97.3474 39.4629C97.0464 39.6309 96.7244 39.7149 96.3814 39.7149C95.7094 39.7149 95.1634 39.4804 94.7434 39.0114C94.3304 38.5354 94.1239 37.8949 94.1239 37.0899C94.1239 36.2849 94.3304 35.6444 94.7434 35.1684C95.1634 34.6924 95.7094 34.4544 96.3814 34.4544C97.0744 34.4544 97.6414 34.7519 98.0824 35.3469V34.5804H98.8699V39.5049C98.8699 40.2819 98.6424 40.8419 98.1874 41.1849C97.7324 41.5349 97.1549 41.7099 96.4549 41.7099ZM96.5704 39.0219C96.8714 39.0219 97.1619 38.9414 97.4419 38.7804C97.7289 38.6194 97.9424 38.4234 98.0824 38.1924V35.9769C97.9424 35.7459 97.7324 35.5534 97.4524 35.3994C97.1724 35.2384 96.8784 35.1579 96.5704 35.1579C96.0664 35.1579 95.6674 35.3364 95.3734 35.6934C95.0864 36.0504 94.9429 36.5159 94.9429 37.0899C94.9429 37.6569 95.0899 38.1224 95.3839 38.4864C95.6779 38.8434 96.0734 39.0219 96.5704 39.0219ZM100.836 33.8559C100.696 33.8559 100.573 33.8069 100.468 33.7089C100.363 33.6039 100.311 33.4779 100.311 33.3309C100.311 33.1839 100.363 33.0579 100.468 32.9529C100.573 32.8479 100.696 32.7954 100.836 32.7954C100.983 32.7954 101.109 32.8479 101.214 32.9529C101.319 33.0579 101.371 33.1839 101.371 33.3309C101.371 33.4779 101.319 33.6039 101.214 33.7089C101.109 33.8069 100.983 33.8559 100.836 33.8559ZM101.235 39.6519H100.447V34.5804H101.235V39.6519ZM104.087 39.7779C103.716 39.7779 103.436 39.6764 103.247 39.4734C103.058 39.2704 102.963 38.9764 102.963 38.5914V35.2734H102.123V34.5804H102.963V33.1944H103.751V34.5804H104.78V35.2734H103.751V38.4234C103.751 38.6194 103.793 38.7769 103.877 38.8959C103.968 39.0149 104.097 39.0744 104.265 39.0744C104.496 39.0744 104.675 39.0044 104.801 38.8644L105.032 39.4524C104.801 39.6694 104.486 39.7779 104.087 39.7779ZM109.85 39.6519H109.063V39.0744C108.636 39.5434 108.076 39.7779 107.383 39.7779C106.914 39.7779 106.501 39.6274 106.144 39.3264C105.787 39.0254 105.608 38.6159 105.608 38.0979C105.608 37.5659 105.783 37.1564 106.133 36.8694C106.49 36.5754 106.907 36.4284 107.383 36.4284C108.104 36.4284 108.664 36.6594 109.063 37.1214V36.2079C109.063 35.8719 108.944 35.6094 108.706 35.4204C108.468 35.2314 108.16 35.1369 107.782 35.1369C107.187 35.1369 106.669 35.3714 106.228 35.8404L105.86 35.2944C106.399 34.7344 107.075 34.4544 107.887 34.4544C108.468 34.4544 108.94 34.5944 109.304 34.8744C109.668 35.1544 109.85 35.5849 109.85 36.1659V39.6519ZM107.666 39.2109C108.296 39.2109 108.762 39.0009 109.063 38.5809V37.6254C108.762 37.2054 108.296 36.9954 107.666 36.9954C107.302 36.9954 107.001 37.1004 106.763 37.3104C106.532 37.5134 106.417 37.7794 106.417 38.1084C106.417 38.4304 106.532 38.6964 106.763 38.9064C107.001 39.1094 107.302 39.2109 107.666 39.2109ZM112.217 39.6519H111.429V32.6484H112.217V39.6519Z" fill="#382828"/>
<path d="M120 9.65186L120 39.6519" stroke="#00BBFF" stroke-width="0.75"/>
</svg>
